  <svg width="22" height="19" viewBox="0 0 22 19" fill="none" xmlns="http://www.w3.org/2000/svg">
<path d="M0 8.91667C0 8.36438 0.447715 7.91667 1 7.91667H21C21.5523 7.91667 22 8.36438 22 8.91667V10.0833C22 10.6356 21.5523 11.0833 21 11.0833H1C0.447716 11.0833 0 10.6356 0 10.0833V8.91667ZM0 1C0 0.447716 0.447715 0 1 0H21C21.5523 0 22 0.447715 22 1V2.16667C22 2.71895 21.5523 3.16667 21 3.16667H1C0.447716 3.16667 0 2.71895 0 2.16667V1ZM0 16.8333C0 16.281 0.447715 15.8333 1 15.8333H21C21.5523 15.8333 22 16.281 22 16.8333V18C22 18.5523 21.5523 19 21 19H1C0.447716 19 0 18.5523 0 18V16.8333Z" fill="#F4FAFF"/>
</svg>
