<svg width="42" height="45" viewBox="0 0 42 45" fill="none" xmlns="http://www.w3.org/2000/svg">
<path d="M2.62509 0C1.92887 0 1.26117 0.278886 0.76887 0.775305C0.276571 1.27173 0 1.94502 0 2.64706C0 3.3491 0.276571 4.02239 0.76887 4.51881C1.26117 5.01523 1.92887 5.29412 2.62509 5.29412H5.82769L6.62835 8.52882C6.6363 8.56607 6.64505 8.60314 6.6546 8.64L10.2195 23.0135L7.87526 25.3747C4.56765 28.71 6.90923 34.4118 11.5871 34.4118H34.1261C34.8224 34.4118 35.4901 34.1329 35.9824 33.6365C36.4747 33.14 36.7512 32.4667 36.7512 31.7647C36.7512 31.0627 36.4747 30.3894 35.9824 29.893C35.4901 29.3965 34.8224 29.1176 34.1261 29.1176H11.5871L14.2122 26.4706H31.5011C31.9884 26.4703 32.4661 26.3332 32.8806 26.0747C33.2951 25.8162 33.63 25.4464 33.8479 25.0068L41.7231 9.12441C41.9231 8.72094 42.0175 8.27265 41.9973 7.82207C41.9772 7.3715 41.8433 6.93358 41.6082 6.54987C41.3731 6.16616 41.0446 5.84939 40.654 5.62962C40.2634 5.40984 39.8236 5.29436 39.3763 5.29412H11.2354L10.4216 2.00382C10.2794 1.43141 9.95158 0.923317 9.49024 0.560264C9.02889 0.197212 8.46047 1.55129e-05 7.87526 0H2.62509ZM36.7512 41.0294C36.7512 42.0825 36.3364 43.0924 35.5979 43.837C34.8595 44.5817 33.8579 45 32.8136 45C31.7693 45 30.7677 44.5817 30.0293 43.837C29.2908 43.0924 28.876 42.0825 28.876 41.0294C28.876 39.9763 29.2908 38.9664 30.0293 38.2218C30.7677 37.4772 31.7693 37.0588 32.8136 37.0588C33.8579 37.0588 34.8595 37.4772 35.5979 38.2218C36.3364 38.9664 36.7512 39.9763 36.7512 41.0294ZM11.8129 45C12.8572 45 13.8588 44.5817 14.5972 43.837C15.3357 43.0924 15.7505 42.0825 15.7505 41.0294C15.7505 39.9763 15.3357 38.9664 14.5972 38.2218C13.8588 37.4772 12.8572 37.0588 11.8129 37.0588C10.7686 37.0588 9.76702 37.4772 9.02857 38.2218C8.29012 38.9664 7.87526 39.9763 7.87526 41.0294C7.87526 42.0825 8.29012 43.0924 9.02857 43.837C9.76702 44.5817 10.7686 45 11.8129 45Z" fill="#000"/>
</svg>
